<svg width="70" height="70" viewBox="0 0 70 70" fill="none" xmlns="http://www.w3.org/2000/svg">
<g clip-path="url(#clip0_1_883)">
<path d="M35 0C25.5019 0 24.3075 0.04375 20.5756 0.21C16.8438 0.385 14.3019 0.97125 12.075 1.8375C9.73807 2.71392 7.62187 4.09237 5.87563 5.87563C4.09237 7.62187 2.71392 9.73807 1.8375 12.075C0.97125 14.2975 0.380625 16.8437 0.21 20.5625C0.04375 24.3031 0 25.4931 0 35.0044C0 44.5069 0.04375 45.6969 0.21 49.4288C0.385 53.1563 0.97125 55.6981 1.8375 57.925C2.73437 60.2262 3.92875 62.1775 5.87563 64.1244C7.81813 66.0712 9.76938 67.27 12.0706 68.1625C14.3019 69.0287 16.8394 69.6194 20.5669 69.79C24.3031 69.9562 25.4931 70 35 70C44.5069 70 45.6925 69.9562 49.4288 69.79C53.1519 69.615 55.7025 69.0287 57.9294 68.1625C60.2647 67.2855 62.3794 65.9071 64.1244 64.1244C66.0712 62.1775 67.2656 60.2262 68.1625 57.925C69.0244 55.6981 69.615 53.1563 69.79 49.4288C69.9562 45.6969 70 44.5069 70 35C70 25.4931 69.9562 24.3031 69.79 20.5669C69.615 16.8438 69.0244 14.2975 68.1625 12.075C67.2861 9.73807 65.9076 7.62187 64.1244 5.87563C62.3781 4.09237 60.2619 2.71392 57.925 1.8375C55.6937 0.97125 53.1475 0.380625 49.4244 0.21C45.6881 0.04375 44.5025 0 34.9913 0H35ZM31.8631 6.30875H35.0044C44.3494 6.30875 45.4562 6.33938 49.1444 6.51C52.5569 6.66313 54.4119 7.23625 55.6456 7.71313C57.2775 8.3475 58.4456 9.10875 59.6706 10.3337C60.8956 11.5587 61.6525 12.7225 62.2869 14.3588C62.7681 15.5881 63.3369 17.4431 63.49 20.8556C63.6606 24.5438 63.6956 25.6506 63.6956 34.9913C63.6956 44.3319 63.6606 45.4431 63.49 49.1312C63.3369 52.5437 62.7638 54.3944 62.2869 55.6281C61.7218 57.1458 60.8267 58.5191 59.6662 59.6487C58.4412 60.8737 57.2775 61.6306 55.6413 62.265C54.4163 62.7463 52.5612 63.315 49.1444 63.4725C45.4562 63.6388 44.3494 63.6781 35.0044 63.6781C25.6594 63.6781 24.5481 63.6388 20.86 63.4725C17.4475 63.315 15.5969 62.7463 14.3631 62.265C12.8443 61.7017 11.4695 60.8081 10.3381 59.6487C9.17557 58.5183 8.27894 57.1434 7.71313 55.6237C7.23625 54.3944 6.66313 52.5394 6.51 49.1269C6.34375 45.4388 6.30875 44.3319 6.30875 34.9825C6.30875 25.6331 6.34375 24.535 6.51 20.8469C6.6675 17.4344 7.23625 15.5794 7.7175 14.3456C8.35188 12.7138 9.11312 11.5456 10.3381 10.3206C11.5631 9.09562 12.7269 8.33875 14.3631 7.70438C15.5969 7.22313 17.4475 6.65438 20.86 6.49688C24.0888 6.34813 25.34 6.30438 31.8631 6.3V6.30875ZM53.6856 12.1187C53.1341 12.1187 52.5879 12.2274 52.0784 12.4385C51.5688 12.6495 51.1058 12.9589 50.7158 13.3489C50.3258 13.7389 50.0164 14.2019 49.8053 14.7115C49.5943 15.221 49.4856 15.7672 49.4856 16.3188C49.4856 16.8703 49.5943 17.4165 49.8053 17.926C50.0164 18.4356 50.3258 18.8986 50.7158 19.2886C51.1058 19.6786 51.5688 19.988 52.0784 20.199C52.5879 20.4101 53.1341 20.5188 53.6856 20.5188C54.7995 20.5188 55.8678 20.0763 56.6555 19.2886C57.4431 18.5009 57.8856 17.4327 57.8856 16.3188C57.8856 15.2048 57.4431 14.1366 56.6555 13.3489C55.8678 12.5612 54.7995 12.1187 53.6856 12.1187ZM35.0044 17.0275C32.6203 16.9903 30.2527 17.4277 28.0393 18.3144C25.8259 19.201 23.811 20.5191 22.1119 22.1919C20.4128 23.8646 19.0635 25.8587 18.1424 28.058C17.2214 30.2573 16.7471 32.6178 16.7471 35.0022C16.7471 37.3865 17.2214 39.7471 18.1424 41.9464C19.0635 44.1456 20.4128 46.1397 22.1119 47.8125C23.811 49.4853 25.8259 50.8034 28.0393 51.69C30.2527 52.5766 32.6203 53.0141 35.0044 52.9769C39.723 52.9033 44.2234 50.9771 47.5343 47.6142C50.8451 44.2513 52.7008 39.7214 52.7008 35.0022C52.7008 30.283 50.8451 25.7531 47.5343 22.3902C44.2234 19.0273 39.723 17.1011 35.0044 17.0275ZM35.0044 23.3319C36.5367 23.3319 38.0539 23.6337 39.4696 24.2201C40.8852 24.8064 42.1715 25.6659 43.255 26.7494C44.3385 27.8329 45.1979 29.1192 45.7843 30.5348C46.3707 31.9504 46.6725 33.4677 46.6725 35C46.6725 36.5323 46.3707 38.0496 45.7843 39.4652C45.1979 40.8808 44.3385 42.1671 43.255 43.2506C42.1715 44.3341 40.8852 45.1936 39.4696 45.7799C38.0539 46.3663 36.5367 46.6681 35.0044 46.6681C31.9098 46.6681 28.942 45.4388 26.7538 43.2506C24.5656 41.0624 23.3363 38.0946 23.3363 35C23.3363 31.9054 24.5656 28.9376 26.7538 26.7494C28.942 24.5612 31.9098 23.3319 35.0044 23.3319Z" fill="black"/>
</g>
<defs>
<clipPath id="clip0_1_883">
<rect width="70" height="70" fill="white"/>
</clipPath>
</defs>
</svg>
