<svg width="70" height="70" viewBox="0 0 70 70" fill="none" xmlns="http://www.w3.org/2000/svg">
<path d="M58.3333 52.5001H52.5V26.9792L35 37.9167L17.5 26.9792V52.5001H11.6666V17.5001H15.1666L35 29.8959L54.8333 17.5001H58.3333M58.3333 11.6667H11.6666C8.42915 11.6667 5.83331 14.2626 5.83331 17.5001V52.5001C5.83331 54.0472 6.44789 55.5309 7.54186 56.6249C8.63582 57.7188 10.1196 58.3334 11.6666 58.3334H58.3333C59.8804 58.3334 61.3641 57.7188 62.4581 56.6249C63.5521 55.5309 64.1666 54.0472 64.1666 52.5001V17.5001C64.1666 15.953 63.5521 14.4693 62.4581 13.3753C61.3641 12.2813 59.8804 11.6667 58.3333 11.6667Z" fill="black"/>
</svg>
