<svg width="70" height="70" viewBox="0 0 70 70" fill="none" xmlns="http://www.w3.org/2000/svg">
<g clip-path="url(#clip0_1_881)">
<path d="M35 0C54.3305 0 70 15.6695 70 35C70 54.3305 54.3305 70 35 70C15.6695 70 0 54.3305 0 35C0 15.6695 15.6695 0 35 0ZM50.547 21C49.2135 21.0245 47.166 21.7245 37.3205 25.767C30.4097 28.6521 23.518 31.5828 16.646 34.559C14.966 35.2205 14.091 35.8645 14.0105 36.4945C13.8565 37.7055 15.6205 38.08 17.8395 38.794C19.649 39.375 22.085 40.054 23.352 40.082C24.5 40.1065 25.781 39.6375 27.195 38.682C36.855 32.242 41.8355 28.9905 42.1505 28.9205C42.371 28.8715 42.6755 28.8085 42.8855 28.9905C43.092 29.1725 43.071 29.5155 43.0465 29.61C42.8715 30.3485 33.803 38.493 33.2815 39.0285L33.0295 39.2805C31.1045 41.181 29.162 42.4235 32.515 44.604C35.546 46.5745 37.31 47.831 40.425 49.854C42.42 51.142 43.9845 52.6715 46.0425 52.486C46.991 52.3985 47.9675 51.52 48.468 48.895C49.6405 42.7 51.9505 29.267 52.4825 23.73C52.5147 23.2707 52.4947 22.8093 52.423 22.3545C52.3798 21.9873 52.1999 21.6499 51.919 21.4095C51.4955 21.0665 50.8375 20.9965 50.547 21Z" fill="black"/>
</g>
<defs>
<clipPath id="clip0_1_881">
<rect width="70" height="70" fill="white"/>
</clipPath>
</defs>
</svg>
