<svg width="70" height="70" viewBox="0 0 70 70" fill="none" xmlns="http://www.w3.org/2000/svg">
<path d="M60.591 43.832L47.6739 38.0433C47.0886 37.7926 46.45 37.6917 45.816 37.75C45.1819 37.8082 44.5724 38.0237 44.0426 38.3769C43.9888 38.4114 43.9377 38.4498 43.8895 38.4918L37.1383 44.234C37.0683 44.2721 36.9903 44.2935 36.9106 44.2964C36.8308 44.2992 36.7515 44.2835 36.6789 44.2504C32.3395 42.1558 27.8442 37.6879 25.7414 33.4086C25.7064 33.3371 25.6882 33.2585 25.6882 33.1789C25.6882 33.0993 25.7064 33.0207 25.7414 32.9492L31.5028 26.1133C31.5441 26.0627 31.5825 26.0097 31.6176 25.9547C31.9659 25.4228 32.1763 24.8126 32.2298 24.1791C32.2833 23.5457 32.1781 22.9088 31.9239 22.3261L26.1762 9.43083C25.8498 8.66961 25.2853 8.03478 24.5675 7.62162C23.8496 7.20846 23.0171 7.03927 22.195 7.13943C18.6217 7.60918 15.3418 9.36394 12.9681 12.0758C10.5945 14.7876 9.28942 18.271 9.29691 21.875C9.29691 43.2851 26.7149 60.7031 48.125 60.7031C51.7288 60.71 55.2119 59.4048 57.9236 57.0312C60.6353 54.6576 62.3903 51.378 62.8606 47.805C62.9605 46.9867 62.7936 46.158 62.3847 45.4421C61.9758 44.7263 61.3467 44.1616 60.591 43.832ZM48.125 57.4218C28.525 57.4218 12.5782 41.475 12.5782 21.875C12.569 19.0693 13.5817 16.3563 15.427 14.2428C17.2722 12.1293 19.8239 10.76 22.6051 10.3906H22.668C22.7782 10.3927 22.8852 10.428 22.975 10.4919C23.0647 10.5558 23.1331 10.6454 23.1711 10.7488L28.9407 23.6304C28.9736 23.7021 28.9906 23.7799 28.9906 23.8588C28.9906 23.9376 28.9736 24.0155 28.9407 24.0871L23.1684 30.9394C23.1253 30.9883 23.086 31.0404 23.0508 31.0953C22.6896 31.6467 22.4769 32.282 22.4333 32.9398C22.3897 33.5975 22.5167 34.2553 22.802 34.8496C25.2274 39.8152 30.2313 44.7808 35.2516 47.2062C35.8493 47.4899 36.5104 47.6138 37.1703 47.5659C37.8302 47.518 38.4664 47.2999 39.0168 46.9328C39.0688 46.8972 39.1207 46.859 39.17 46.8179L45.9184 41.0758C45.985 41.0399 46.0586 41.019 46.1342 41.0142C46.2097 41.0095 46.2853 41.0212 46.3559 41.0484L59.2758 46.8371C59.3813 46.882 59.4701 46.959 59.5295 47.0571C59.5888 47.1553 59.6158 47.2696 59.6067 47.3839C59.2392 50.1665 57.8712 52.72 55.7581 54.5673C53.6451 56.4147 50.9317 57.4294 48.125 57.4218Z" fill="black"/>
</svg>
