<svg viewBox="0 0 32 32" fill="none" xmlns="http://www.w3.org/2000/svg">
<path d="M28 19.3499L22.1138 16.7112L22.0913 16.7012C21.7086 16.5362 21.2908 16.4698 20.8759 16.5081C20.461 16.5463 20.0623 16.6879 19.7163 16.9199C19.6677 16.9524 19.621 16.9875 19.5763 17.0249L16.7875 19.3999C15.1625 18.5187 13.4838 16.8537 12.6013 15.2487L14.9838 12.4162C15.022 12.3704 15.0575 12.3224 15.09 12.2724C15.316 11.9276 15.4532 11.5323 15.4894 11.1216C15.5256 10.711 15.4597 10.2977 15.2975 9.91869C15.2936 9.91143 15.2903 9.90391 15.2875 9.89619L12.65 3.99994C12.4335 3.50684 12.064 3.09655 11.5962 2.82978C11.1284 2.563 10.5871 2.45393 10.0525 2.51869C8.23796 2.75706 6.57224 3.64778 5.36642 5.02451C4.16061 6.40123 3.49717 8.16981 3.5 9.99994C3.5 20.2012 11.7988 28.4999 22 28.4999C23.8301 28.5028 25.5987 27.8393 26.9754 26.6335C28.3522 25.4277 29.2429 23.762 29.4813 21.9474C29.546 21.4128 29.4369 20.8715 29.1702 20.4037C28.9034 19.9359 28.4931 19.5664 28 19.3499ZM22 25.4999C17.8907 25.495 13.9511 23.8604 11.0453 20.9546C8.13959 18.0489 6.50496 14.1093 6.5 9.99994C6.49714 8.96431 6.84873 7.95887 7.49635 7.15071C8.14397 6.34255 9.04863 5.78032 10.06 5.55744L12.4125 10.8074L10.0175 13.6599C9.97879 13.7061 9.94289 13.7545 9.91 13.8049C9.67394 14.1656 9.53515 14.5812 9.50712 15.0114C9.47908 15.4416 9.56275 15.8717 9.75 16.2599C10.9275 18.6699 13.3538 21.0799 15.7888 22.2599C16.1796 22.4452 16.6119 22.526 17.0433 22.4942C17.4747 22.4624 17.8905 22.3193 18.25 22.0787C18.2983 22.046 18.3446 22.0105 18.3888 21.9724L21.1925 19.5887L26.4425 21.9399C26.2196 22.9513 25.6574 23.856 24.8492 24.5036C24.0411 25.1512 23.0356 25.5028 22 25.4999Z" fill="white"/>
</svg>
